#!OML:ASF H:\Dans Jumps\Project 1\Capture day 1\Session 1\subject.ASF
:FULLY-SPECIFIED
:DEGREES
497
root -0.0760493 17.7223 1.32347 9.09452 -0.367877 -2.05666
lowerback 0.780612 -0.405105 -0.016699
upperback 1.70689 -0.562688 2.13473
thorax 1.33273 -0.297242 2.19573
lowerneck -13.6553 -0.181955 -1.83105
upperneck 25.3797 -0.0999099 1.08884
head 10.3649 -0.0954076 0.684887
rclavicle -2.5842e-015 -5.56597e-015
rhumerus -31.6609 -21.6707 -75.6473
rradius 21.0881
rwrist 37.7739
rhand -21.728 -25.3356
rfingers 7.12502
rthumb 4.67144 -55.2641
lclavicle -2.5842e-015 -5.56597e-015
lhumerus -28.3791 -1.88247 88.8649
lradius 20.8847
lwrist 12.7298
lhand -27.9074 -5.67238
lfingers 7.12502
lthumb -1.29644 24.3034
rfemur -19.8158 -0.890224 19.3
rtibia 22.5423
rfoot -10.673 -1.55529
rtoes 14.2219
lfemur -19.4678 6.06248 -15.7487
ltibia 20.6394
lfoot -6.82438 6.12532
ltoes -2.0976
498
root -0.0735787 17.7234 1.34668 9.03193 -0.334651 -2.03646
lowerback 0.686005 -0.411252 -0.0219694
upperback 1.67038 -0.57125 2.12551
thorax 1.34863 -0.301399 2.18857
lowerneck -13.6549 -0.187447 -1.83242
upperneck 25.3336 -0.104736 1.08046
head 10.3481 -0.098502 0.681289
rclavicle 9.14409e-015 3.97569e-016
rhumerus -31.3663 -21.2298 -75.9485
rradius 21.3319
rwrist 37.3046
rhand -21.7773 -25.4238
rfingers 7.12502
rthumb 4.62379 -55.3534
lclavicle 9.14409e-015 3.97569e-016
lhumerus -28.225 -2.30909 89.1812
lradius 21.1981
lwrist 12.9486
lhand -27.9019 -5.75146
lfingers 7.12502
lthumb -1.29113 24.2244
rfemur -19.619 -0.898892 19.2695
rtibia 22.4777
rfoot -10.7003 -1.60298
rtoes 14.2103
lfemur -19.2669 6.04242 -15.7682
ltibia 20.5473
lfoot -6.8459 6.12333
ltoes -2.13945
499
root -0.0710895 17.7248 1.37057 8.96715 -0.304074 -2.007
lowerback 0.588056 -0.417915 -0.0370044
upperback 1.63229 -0.580444 2.1135
thorax 1.36487 -0.305971 2.18399
lowerneck -13.6557 -0.19264 -1.8349
upperneck 25.2944 -0.109696 1.0751
head 10.334 -0.10144 0.678976
rclavicle 5.46658e-016 1.74931e-014
rhumerus -31.092 -20.8112 -76.2265
rradius 21.57
rwrist 36.8638
rhand -21.8389 -25.51
rfingers 7.12502
rthumb 4.56437 -55.4408
lclavicle 5.46658e-016 1.74931e-014
lhumerus -28.0995 -2.73251 89.4905
lradius 21.5186
lwrist 13.1494
lhand -27.9092 -5.86062
lfingers 7.12502
lthumb -1.29818 24.1152
rfemur -19.4153 -0.9126 19.229
rtibia 22.4112
rfoot -10.7408 -1.64705
rtoes 14.1782
lfemur -19.0518 6.01698 -15.7965
ltibia 20.4398
lfoot -6.8671 6.12645
ltoes -2.17766
500
root -0.0687651 17.7262 1.39466 8.90152 -0.273156 -1.97926
lowerback 0.49089 -0.424339 -0.0509373
upperback 1.59069 -0.589217 2.10135
thorax 1.37705 -0.310277 2.17865
lowerneck -13.6525 -0.199879 -1.84218
upperneck 25.258 -0.118734 1.07827
head 10.3203 -0.105726 0.679997
rclavicle -1.0635e-014 1.19271e-014
rhumerus -30.8386 -20.4271 -76.478
rradius 21.7959
rwrist 36.4539
rhand -21.9081 -25.5912
rfingers 7.12502
rthumb 4.49749 -55.5235
lclavicle -1.0635e-014 1.19271e-014
lhumerus -27.9944 -3.15838 89.7938
lradius 21.8342
lwrist 13.3561
lhand -27.9069 -5.94649
lfingers 7.12502
lthumb -1.296 24.0293
rfemur -19.2062 -0.924726 19.1913
rtibia 22.3389
rfoot -10.7874 -1.69539
rtoes 14.1284
lfemur -18.8313 5.99136 -15.8214
ltibia 20.3252
lfoot -6.88786 6.12873
ltoes -2.21592
501
root -0.066436 17.7278 1.41892 8.83681 -0.241934 -1.9564
lowerback 0.390298 -0.4302 -0.0581194
upperback 1.54762 -0.59725 2.08914
thorax 1.38955 -0.31412 2.16942
lowerneck -13.6466 -0.208758 -1.85974
upperneck 25.2221 -0.131612 1.09655
head 10.3063 -0.110989 0.68763
rclavicle -2.08724e-015 1.82882e-014
rhumerus -30.5993 -20.0909 -76.7001
rradius 21.9967
rwrist 36.0834
rhand -21.9962 -25.649
rfingers 7.12502
rthumb 4.41247 -55.5831
lclavicle -2.08724e-015 1.82882e-014
lhumerus -27.9071 -3.59477 90.093
lradius 22.1404
lwrist 13.5875
lhand -27.8952 -6.03911
lfingers 7.12502
lthumb -1.28471 23.9368
rfemur -18.9925 -0.940995 19.1597
rtibia 22.2585
rfoot -10.8366 -1.74144
rtoes 14.0743
lfemur -18.6097 5.96726 -15.8407
ltibia 20.2083
lfoot -6.91132 6.13062
ltoes -2.24734
502
root -0.0641001 17.7295 1.44304 8.77201 -0.206283 -1.94526
lowerback 0.288637 -0.435866 -0.0509245
upperback 1.5053 -0.605124 2.07863
thorax 1.40329 -0.317725 2.15384
lowerneck -13.6394 -0.220246 -1.88298
upperneck 25.1824 -0.149254 1.12421
head 10.2908 -0.117864 0.698924
rclavicle 1.30701e-014 -1.90833e-014
rhumerus -30.3661 -19.8271 -76.8877
rradius 22.161
rwrist 35.7702
rhand -22.0888 -25.6892
rfingers 7.12502
rthumb 4.32307 -55.625
lclavicle 1.30701e-014 -1.90833e-014
lhumerus -27.8299 -4.03715 90.3869
lradius 22.4316
lwrist 13.8474
lhand -27.8892 -6.13785
lfingers 7.12502
lthumb -1.27886 23.8381
rfemur -18.773 -0.961822 19.142
rtibia 22.1678
rfoot -10.8848 -1.78729
rtoes 14.0151
lfemur -18.3901 5.9448 -15.8468
ltibia 20.0945
lfoot -6.93793 6.12779
ltoes -2.2682
503
root -0.061807 17.7313 1.46698 8.70671 -0.171157 -1.94252
lowerback 0.186182 -0.43991 -0.0348962
upperback 1.46376 -0.610942 2.06977
thorax 1.41811 -0.320216 2.13499
lowerneck -13.6347 -0.231647 -1.90478
upperneck 25.1399 -0.167224 1.15254
head 10.2748 -0.124658 0.710153
rclavicle 7.8023e-015 7.55382e-015
rhumerus -30.1421 -19.6251 -77.0439
rradius 22.2937
rwrist 35.5064
rhand -22.1761 -25.7054
rfingers 7.12502
rthumb 4.23868 -55.6429
lclavicle 7.8023e-015 7.55382e-015
lhumerus -27.7585 -4.48082 90.6753
lradius 22.7003
lwrist 14.1241
lhand -27.8833 -6.22678
lfingers 7.12502
lthumb -1.2732 23.7492
rfemur -18.5489 -0.983155 19.1341
rtibia 22.0667
rfoot -10.9277 -1.83286
rtoes 13.947
lfemur -18.1728 5.92652 -15.8434
ltibia 19.9856
lfoot -6.96814 6.12284
ltoes -2.28481
504
root -0.0594583 17.733 1.49116 8.63901 -0.139025 -1.94687
lowerback 0.0795307 -0.441397 -0.0101285
upperback 1.42502 -0.613544 2.06139
thorax 1.43796 -0.321035 2.11172
lowerneck -13.6298 -0.244139 -1.92417
upperneck 25.0936 -0.186576 1.17818
head 10.2573 -0.132158 0.719817
rclavicle 5.31749e-015 -9.14409e-015
rhumerus -29.9317 -19.4518 -77.1833
rradius 22.4117
rwrist 35.2602
rhand -22.251 -25.7238
rfingers 7.12502
rthumb 4.16638 -55.6628
lclavicle 5.31749e-015 -9.14409e-015
lhumerus -27.6935 -4.91099 90.953
lradius 22.9516
lwrist 14.393
lhand -27.8935 -6.29445
lfingers 7.12502
lthumb -1.28306 23.6814
rfemur -18.3185 -1.00515 19.134
rtibia 21.9587
rfoot -10.9679 -1.87536
rtoes 13.8704
lfemur -17.9517 5.91498 -15.8323
ltibia 19.8781
lfoot -7.00171 6.11537
ltoes -2.29857
505
root -0.0571124 17.7348 1.51565 8.57329 -0.111482 -1.9562
lowerback -0.036627 -0.440883 0.0183802
upperback 1.38928 -0.613743 2.05455
thorax 1.4661 -0.320672 2.08787
lowerneck -13.6297 -0.255802 -1.93524
upperneck 25.0415 -0.203736 1.19275
head 10.2387 -0.139128 0.724398
rclavicle -4.96962e-015 1.39149e-014
rhumerus -29.7324 -19.2868 -77.3136
rradius 22.5226
rwrist 35.0207
rhand -22.3031 -25.75
rfingers 7.12502
rthumb 4.11612 -55.69
lclavicle -4.96962e-015 1.39149e-014
lhumerus -27.6303 -5.31234 91.2159
lradius 23.1836
lwrist 14.6332
lhand -27.9009 -6.32618
lfingers 7.12502
lthumb -1.29019 23.6497
rfemur -18.0891 -1.02598 19.1394
rtibia 21.8475
rfoot -11.0045 -1.91487
rtoes 13.7746
lfemur -17.7293 5.90889 -15.8158
ltibia 19.767
lfoot -7.0377 6.10651
ltoes -2.2938
506
root -0.0547556 17.7366 1.54033 8.50344 -0.0899571 -1.95305
lowerback -0.15109 -0.437894 0.0347252
upperback 1.35359 -0.610506 2.04309
thorax 1.49331 -0.318706 2.06618
lowerneck -13.6244 -0.267624 -1.9413
upperneck 24.9852 -0.220575 1.20034
head 10.2176 -0.146289 0.725675
rclavicle -8.84592e-015 6.75868e-015
rhumerus -29.5547 -19.1089 -77.4418
rradius 22.6353
rwrist 34.7673
rhand -22.3273 -25.8018
rfingers 7.12502
rthumb 4.09272 -55.7422
lclavicle -8.84592e-015 6.75868e-015
lhumerus -27.5745 -5.67868 91.4613
lradius 23.3942
lwrist 14.8245
lhand -27.9023 -6.32698
lfingers 7.12502
lthumb -1.29158 23.6489
rfemur -17.8563 -1.05067 19.1309
rtibia 21.736
rfoot -11.0391 -1.94767
rtoes 13.6607
lfemur -17.4964 5.90416 -15.8135
ltibia 19.6481
lfoot -7.07282 6.10158
ltoes -2.28898
507
root -0.0523226 17.7385 1.56556 8.42991 -0.0742439 -1.93858
lowerback -0.267999 -0.433851 0.0404305
upperback 1.31939 -0.605785 2.02785
thorax 1.52344 -0.316125 2.04661
lowerneck -13.609 -0.279679 -1.9514
upperneck 24.9189 -0.23702 1.20844
head 10.1909 -0.153582 0.727804
rclavicle 8.74653e-015 -2.3059e-014
rhumerus -29.3899 -18.936 -77.5631
rradius 22.7362
rwrist 34.5346
rhand -22.3435 -25.8598
rfingers 7.12502
rthumb 4.07707 -55.8005
lclavicle 8.74653e-015 -2.3059e-014
lhumerus -27.5271 -6.00588 91.6889
lradius 23.5864
lwrist 14.9647
lhand -27.8992 -6.29592
lfingers 7.12502
lthumb -1.28853 23.6799
rfemur -17.6208 -1.08079 19.1096
rtibia 21.6288
rfoot -11.0759 -1.97116
rtoes 13.5368
lfemur -17.2502 5.89939 -15.8242
ltibia 19.5169
lfoot -7.10654 6.10133
ltoes -2.27705
508
root -0.0500254 17.7403 1.59105 8.35115 -0.0625756 -1.9155
lowerback -0.382567 -0.428997 0.0360185
upperback 1.28586 -0.599815 2.01021
thorax 1.553 -0.31303 2.03031
lowerneck -13.5911 -0.291037 -1.95562
upperneck 24.8508 -0.251473 1.2071
head 10.1631 -0.160513 0.725844
rclavicle 1.54058e-015 -1.15295e-014
rhumerus -29.2389 -18.7657 -77.6783
rradius 22.8275
rwrist 34.3301
rhand -22.3484 -25.9201
rfingers 7.12502
rthumb 4.07231 -55.861
lclavicle 1.54058e-015 -1.15295e-014
lhumerus -27.4874 -6.29559 91.8994
lradius 23.7573
lwrist 15.054
lhand -27.884 -6.25305
lfingers 7.12502
lthumb -1.27393 23.7229
rfemur -17.384 -1.10512 19.079
rtibia 21.5292
rfoot -11.1162 -1.99891
rtoes 13.3975
lfemur -16.9896 5.89557 -15.8437
ltibia 19.372
lfoot -7.13508 6.10356
ltoes -2.27069
509
root -0.0478497 17.742 1.61676 8.26815 -0.0555577 -1.87776
lowerback -0.495395 -0.423632 0.0155516
upperback 1.25208 -0.592848 1.98831
thorax 1.5814 -0.309602 2.0187
lowerneck -13.5679 -0.301432 -1.95909
upperneck 24.7821 -0.264017 1.20252
head 10.134 -0.166885 0.722859
rclavicle 1.09332e-015 -1.86858e-014
rhumerus -29.1013 -18.6067 -77.7853
rradius 22.9045
rwrist 34.1664
rhand -22.3598 -25.9665
rfingers 7.12502
rthumb 4.06129 -55.9075
lclavicle 1.09332e-015 -1.86858e-014
lhumerus -27.4557 -6.55663 92.0953
lradius 23.9024
lwrist 15.0987
lhand -27.8608 -6.23023
lfingers 7.12502
lthumb -1.25144 23.7458
rfemur -17.1467 -1.12513 19.032
rtibia 21.4374
rfoot -11.1595 -2.02985
rtoes 13.2574
lfemur -16.7178 5.89152 -15.8792
ltibia 19.217
lfoot -7.16083 6.10972
ltoes -2.26945
